<svg height="480pt" viewBox="-8 0 480 480.21214" width="480pt" xmlns="http://www.w3.org/2000/svg"><path d="m96.105469 408c-13.253907 0-24 10.746094-24 24s10.746093 24 24 24c13.253906 0 24-10.746094 24-24-.015625-13.25-10.75-23.984375-24-24zm0 32c-4.417969 0-8-3.582031-8-8s3.582031-8 8-8 8 3.582031 8 8c-.003907 4.414062-3.582031 7.996094-8 8zm0 0"/><path d="m456.105469 160h-72.808594c-3.824219-18.609375-20.191406-31.972656-39.191406-32h-272c-18.996094.027344-35.367188 13.390625-39.191407 32h-24.808593c-4.417969 0-8 3.582031-8 8v48c.0625 57.410156 46.589843 103.9375 104 104h4.453125l-24.605469 65.621094c-20.488281 5.320312-35.082031 23.414062-35.945313 44.5625-.859374 21.148437 12.210938 40.375 32.195313 47.347656 19.988281 6.96875 42.179687.050781 54.660156-17.046875s12.308594-40.34375-.425781-57.253906l7.214844-19.230469h127.699218l22.175782 73.917969c3.167968 10.621093 11.765625 18.738281 22.550781 21.296875 10.785156 2.554687 22.113281-.84375 29.707031-8.914063 7.597656-8.070312 10.308594-19.582031 7.105469-30.191406l-36.074219-120.246094c56.3125-1.5 101.207032-47.535156 101.289063-103.863281v-8h40c4.417969 0 8-3.582031 8-8v-32c0-4.417969-3.582031-8-8-8zm-384-16h272c10.167969.011719 19.230469 6.417969 22.628906 16h-317.257813c3.402344-9.582031 12.460938-15.988281 22.628907-16zm178.046875 176 4.800781 16h-95.300781l6-16zm-128.402344 71.496094c-6.109375-3.898438-13.023438-6.347656-20.222656-7.167969l24.121094-64.328125h22.914062zm-25.644531 72.503906c-17.671875 0-32-14.328125-32-32s14.328125-32 32-32 32 14.328125 32 32c-.019531 17.664062-14.335938 31.980469-32 32zm51.546875-96 6-16h106.101562l4.796875 16zm185.582031 89.960938c-3.382813 4.546874-9.039063 6.792968-14.621094 5.8125-5.578125-.980469-10.128906-5.027344-11.757812-10.453126l-39.996094-133.320312h31.292969l37.410156 124.707031c1.386719 4.535157.519531 9.460938-2.328125 13.253907zm66.871094-241.960938c-.054688 48.578125-39.421875 87.945312-88 88h-208c-48.578125-.054688-87.945313-39.421875-88-88v-40h384zm48-24h-32v-16h32zm0 0"/><path d="m256.105469 192h-96c-4.417969 0-8 3.582031-8 8s3.582031 8 8 8h96c4.417969 0 8-3.582031 8-8s-3.582031-8-8-8zm0 0"/><path d="m256.105469 224h-96c-4.417969 0-8 3.582031-8 8s3.582031 8 8 8h96c4.417969 0 8-3.582031 8-8s-3.582031-8-8-8zm0 0"/><path d="m237.226562 27.484375c6.5625-4.355469 10.613282-11.613281 10.878907-19.484375 0-4.417969-3.582031-8-8-8s-8 3.582031-8 8c0 2.699219-1.25 3.96875-5.121094 7.195312-6.5625 4.355469-10.613281 11.613282-10.878906 19.484376.265625 7.871093 4.316406 15.132812 10.878906 19.488281 3.871094 3.226562 5.121094 4.5 5.121094 7.195312 0 2.566407-1.027344 3.765625-5.117188 7.167969-6.5625 4.347656-10.617187 11.601562-10.882812 19.46875 0 4.417969 3.582031 8 8 8s8-3.582031 8-8c0-2.566406 1.027343-3.769531 5.117187-7.171875 6.5625-4.34375 10.617188-11.597656 10.882813-19.464844-.265625-7.871093-4.316407-15.128906-10.875-19.484375-3.875-3.226562-5.125-4.5-5.125-7.199218 0-2.699219 1.25-3.96875 5.121093-7.195313zm0 0"/><path d="m277.226562 27.484375c6.5625-4.355469 10.613282-11.613281 10.878907-19.484375 0-4.417969-3.582031-8-8-8s-8 3.582031-8 8c0 2.699219-1.25 3.96875-5.121094 7.195312-6.5625 4.355469-10.613281 11.613282-10.878906 19.484376.265625 7.871093 4.316406 15.132812 10.878906 19.488281 3.871094 3.226562 5.121094 4.5 5.121094 7.195312 0 2.566407-1.027344 3.765625-5.117188 7.167969-6.5625 4.347656-10.617187 11.601562-10.882812 19.46875 0 4.417969 3.582031 8 8 8s8-3.582031 8-8c0-2.566406 1.027343-3.769531 5.117187-7.171875 6.5625-4.34375 10.617188-11.597656 10.882813-19.464844-.265625-7.871093-4.316407-15.128906-10.875-19.484375-3.875-3.226562-5.125-4.5-5.125-7.199218 0-2.699219 1.25-3.96875 5.121093-7.195313zm0 0"/><path d="m149.226562 27.484375c6.5625-4.355469 10.613282-11.613281 10.878907-19.484375 0-4.417969-3.582031-8-8-8s-8 3.582031-8 8c0 2.699219-1.25 3.96875-5.121094 7.195312-6.5625 4.355469-10.613281 11.613282-10.878906 19.484376.265625 7.871093 4.316406 15.132812 10.878906 19.488281 3.871094 3.226562 5.121094 4.5 5.121094 7.195312 0 2.566407-1.027344 3.765625-5.117188 7.167969-6.5625 4.347656-10.617187 11.601562-10.882812 19.46875 0 4.417969 3.582031 8 8 8s8-3.582031 8-8c0-2.566406 1.027343-3.769531 5.117187-7.171875 6.5625-4.34375 10.617188-11.597656 10.882813-19.464844-.265625-7.871093-4.316407-15.128906-10.875-19.484375-3.875-3.226562-5.125-4.5-5.125-7.199218 0-2.699219 1.25-3.96875 5.121093-7.195313zm0 0"/><path d="m189.226562 27.484375c6.5625-4.355469 10.613282-11.613281 10.878907-19.484375 0-4.417969-3.582031-8-8-8s-8 3.582031-8 8c0 2.699219-1.25 3.96875-5.121094 7.195312-6.5625 4.355469-10.613281 11.613282-10.878906 19.484376.265625 7.871093 4.316406 15.132812 10.878906 19.488281 3.871094 3.226562 5.121094 4.5 5.121094 7.195312 0 2.566407-1.027344 3.765625-5.117188 7.167969-6.5625 4.347656-10.617187 11.601562-10.882812 19.46875 0 4.417969 3.582031 8 8 8s8-3.582031 8-8c0-2.566406 1.027343-3.769531 5.117187-7.171875 6.5625-4.34375 10.617188-11.597656 10.882813-19.464844-.265625-7.871093-4.316407-15.128906-10.875-19.484375-3.875-3.226562-5.125-4.5-5.125-7.199218 0-2.699219 1.25-3.96875 5.121093-7.195313zm0 0"/></svg>