<svg enable-background="new 0 0 642.024 125.229" height="125.229" viewBox="0 0 642.024 125.229" width="642.024" xmlns="http://www.w3.org/2000/svg"><g fill="#fff"><path d="m252.493 116.771v-66.741l-28.69 51.181h-6.201l-28.811-51.181v66.741h-10.942v-86.314h11.549l31.244 56.044 31.365-56.044h11.427v86.314z"/><path d="m342.696 107.047v9.724h-58.596v-86.313h57.502v9.726h-46.561v27.961h40.482v9.117h-40.482v29.785z"/><path d="m349.26 116.771 35.497-86.314h8.997l35.377 86.314h-11.671l-10.212-25.286h-36.227l-10.091 25.286zm39.996-73.67-16.048 39.875h31.608z"/><path d="m490.726 40.183h-29.784v76.589h-10.942v-76.589h-29.783v-9.726h70.509z"/><path d="m560.574 107.047v9.724h-58.596v-86.313h57.502v9.726h-46.561v27.961h40.482v9.117h-40.482v29.785z"/><path d="m576.133 116.772v-86.315h36.956c3.811 0 7.314.791 10.517 2.371 3.2 1.581 5.957 3.689 8.268 6.321 2.309 2.635 4.112 5.593 5.409 8.875 1.296 3.283 1.946 6.626 1.946 10.03 0 2.999-.427 5.896-1.278 8.692s-2.066 5.33-3.647 7.598c-1.58 2.27-3.485 4.215-5.713 5.835-2.23 1.623-4.722 2.795-7.476 3.526l20.909 33.067h-12.4l-19.695-31h-22.854v31zm10.942-40.726h26.137c2.268 0 4.317-.486 6.139-1.459 1.825-.972 3.384-2.289 4.682-3.951 1.295-1.66 2.31-3.586 3.039-5.774s1.095-4.456 1.095-6.808c0-2.431-.427-4.72-1.277-6.869-.851-2.147-1.986-4.052-3.403-5.714-1.419-1.66-3.081-2.957-4.984-3.89-1.906-.931-3.911-1.398-6.018-1.398h-25.408v35.863z"/></g><path d="m147.528 25.286c0-13.943-11.343-25.286-25.286-25.286-9.112 0-17.089 4.861-21.54 12.109-9.416-4.78-20.06-7.492-31.343-7.492-38.306 0-69.359 31.052-69.359 69.358 0 17.768 6.687 33.963 17.672 46.237-.989-5.771-.085-12.962 3.393-18.637 5.395-8.805 18.712-26.438 3.235-34.771 8.61 1.91 11.64 8.31 10.36 16.068-1.483 9.005-8.224 18.267-2.646 27.188 4.943 7.903 17.749 8.422 20.878-1.102 5.331-12.938-15.203-20.869-12.432-1.064-6.654-6.031-4.412-14.463 2.454-17.352 11.121-4.681 25.304 6.348 25.974 18.653 14.16-10.759-.706-19.023-13.457-26.165-19.497-10.924-24.166-29.907-2.18-41.485-3.533 3.338-17.955 20.723.442 27-1.707-18.873 14.884-41.226 30.366-43.259-17.914 6.675-26.132 30.32-13.145 45.537 5.669 6.645 16.017 11.83 22.578 17.441 17.845 15.266 11.829 28.996 4.719 36.965 18.728-13.95 4.394-33.78-3.027-41.896-4.002-4.626-8.337-8.689-7.719-15.077.618-5.225 3.717-9.871 9.29-11.612-10.524 5.514 2.099 18.368 6.846 22.923 8.578 8.236 15.518 14.563 17.444 26.419 1.085 6.68-.26 12.255-2.868 17.248 12.683-12.567 20.54-29.994 20.54-49.259 0-9.248-1.825-18.065-5.109-26.132 8.243-4.171 13.92-12.704 13.92-22.557m-25.286 16.772c-9.249 0-16.772-7.523-16.772-16.772 0-3.265.952-6.305 2.572-8.885 2.97-4.728 8.217-7.887 14.2-7.887 9.248 0 16.772 7.524 16.772 16.772 0 6.48-3.699 12.101-9.091 14.893-2.304 1.193-4.912 1.879-7.681 1.879" fill="#c21028"/></svg>