<?xml version="1.0" encoding="UTF-8" standalone="no"?> <svg id="Layer_1" data-name="Layer 1" xmlns="http://www.w3.org/2000/svg" viewBox="0 0 128 128"><defs><style>.cls-1{fill:#2e79bd;}.cls-2{fill:#2d3e50;}</style></defs><title>b</title><path class="cls-1" d="M50.28766,53.8735v3.53717a1.73832,1.73832,0,0,0,3.47663,0V53.8735a1.73832,1.73832,0,1,0-3.47663,0Z"/><path class="cls-1" d="M73.92961,77.68791a1.73825,1.73825,0,1,0,0-3.4765h-3.537a1.73825,1.73825,0,0,0,0,3.4765Z"/><path class="cls-1" d="M53.5917,97.85323V94.31638a1.73822,1.73822,0,1,0-3.47644,0v3.53685a1.73822,1.73822,0,1,0,3.47644,0Z"/><path class="cls-1" d="M29.94975,74.03888a1.73822,1.73822,0,1,0,0,3.47644h3.53717a1.73822,1.73822,0,0,0,0-3.47644Z"/><path class="cls-2" d="M98.26018,71.44052a5.915,5.915,0,0,0-4.64231-1.4223l-3.06666.39655c-.09517-.69264-.20092-1.38-.3384-2.05679a38.41932,38.41932,0,0,0-3.8809-10.8179L79.58,63.80029a29.3816,29.3816,0,0,1,1.96691,6.25495,30.1902,30.1902,0,0,1-35.42,35.42A30.4348,30.4348,0,0,1,22.33379,81.66627a30.07155,30.07155,0,0,1,0-11.611,30.17423,30.17423,0,0,1,35.4147-23.79837,29.633,29.633,0,0,1,6.79423,2.2154L70.77124,41.752a38.5251,38.5251,0,0,0-11.32553-4.16114c-.68206-.13748-1.36411-.2432-2.05676-.33837l.39655-3.06669a7.21165,7.21165,0,0,0,.04228-.76664,5.88737,5.88737,0,1,0-11.72734.76664l.386,3.06669c-.68209.09517-1.36944.20089-2.05679.33837A39.34253,39.34253,0,0,0,13.66784,68.35269c-.13218.68209-.24323,1.36944-.34369,2.06208l-3.06136-.39655A5.89327,5.89327,0,0,0,3.62188,75.866a5.89264,5.89264,0,0,0,6.64091,5.83722l3.06136-.39126c.10046.68735.21151,1.36944.34369,2.05149a39.334,39.334,0,0,0,30.76181,30.77239c.68735.13218,1.36941.24323,2.05679.3384l-.386,3.07195a5.00421,5.00421,0,0,0-.04757.75609,5.88966,5.88966,0,1,0,11.73263-.75609l-.39655-3.07195c.69264-.09517,1.3747-.20621,2.05149-.3384A39.31911,39.31911,0,0,0,90.20752,83.36349c.14277-.6715.24852-1.36415.34369-2.05149l3.06666.39126a7.18369,7.18369,0,0,0,.76667.0476,5.88925,5.88925,0,0,0,3.87564-10.31034Z"/><path class="cls-2" d="M111.93778,16.26376,106.97491,3.82344,89.08186,21.7165l2.1405,5.36555L53.35912,67.91951A8.07265,8.07265,0,1,0,60.01675,75.866c0-.25081-.01514-.49792-.0375-.74289l41.14023-38.14393,5.36555,2.1405,17.89309-17.89306Z"/></svg>